<svg width="15" height="15" viewBox="0 0 15 15" fill="none" xmlns="http://www.w3.org/2000/svg">
<path d="M13.125 7.5C13.125 6.32469 12.7569 5.17891 12.0723 4.22356C11.3877 3.26822 10.421 2.55131 9.3081 2.17352C8.19516 1.79573 6.99185 1.77604 5.86715 2.11721C4.74245 2.45838 3.75287 3.14328 3.03739 4.07572C2.32191 5.00815 1.91647 6.14128 1.87801 7.31596C1.83956 8.49063 2.17002 9.64785 2.82298 10.6251C3.47595 11.6023 4.41862 12.3505 5.51859 12.7645C6.61857 13.1785 7.8206 13.2375 8.95586 12.9333" stroke="#D7D7D7" stroke-linecap="round"/>
<circle cx="7.5" cy="7.5" r="2.5" stroke="#D7D7D7"/>
<path d="M10 5.625V8.4375C10 9.30044 10.6996 10 11.5625 10V10C12.4254 10 13.125 9.30044 13.125 8.4375V7.5" stroke="#D7D7D7" stroke-linecap="round"/>
</svg>
