<svg width="17" height="17" viewBox="0 0 17 17" fill="none" xmlns="http://www.w3.org/2000/svg">
<path d="M6.20469 5.7987V4.54843C6.20469 4.21684 6.33642 3.89882 6.57089 3.66435C6.80536 3.42988 7.12337 3.29816 7.45496 3.29816H13.4563C13.7879 3.29816 14.1059 3.42988 14.3403 3.66435C14.5748 3.89882 14.7065 4.21684 14.7065 4.54843V12.0501C14.7065 12.3817 14.5748 12.6997 14.3403 12.9341C14.1059 13.1686 13.7879 13.3003 13.4563 13.3003H7.45496C7.12337 13.3003 6.80536 13.1686 6.57089 12.9341C6.33642 12.6997 6.20469 12.3817 6.20469 12.0501V10.7998" stroke="#242424" stroke-width="1.00189" stroke-linecap="round" stroke-linejoin="round"/>
<path d="M4.20361 5.79884L1.70271 8.29975L4.20361 10.8006" stroke="#242424" stroke-width="1.00189" stroke-linecap="round" stroke-linejoin="round"/>
<path d="M10.2361 8.29944H1.70297" stroke="#242424" stroke-width="1.00189" stroke-linecap="round" stroke-linejoin="round"/>
</svg>
