<svg width="15" height="15" viewBox="0 0 15 15" fill="none" xmlns="http://www.w3.org/2000/svg">
<path d="M2.5 8.625C2.5 7.69312 2.5 7.22718 2.65224 6.85963C2.85523 6.36958 3.24458 5.98023 3.73463 5.77724C4.10218 5.625 4.56812 5.625 5.5 5.625H9.5C10.4319 5.625 10.8978 5.625 11.2654 5.77724C11.7554 5.98023 12.1448 6.36958 12.3478 6.85963C12.5 7.22718 12.5 7.69312 12.5 8.625V8.625C12.5 10.0228 12.5 10.7217 12.2716 11.2731C11.9672 12.0081 11.3831 12.5922 10.6481 12.8966C10.0967 13.125 9.39782 13.125 8 13.125H7C5.60218 13.125 4.90326 13.125 4.35195 12.8966C3.61687 12.5922 3.03284 12.0081 2.72836 11.2731C2.5 10.7217 2.5 10.0228 2.5 8.625V8.625Z" stroke="#D9D9D9"/>
<path d="M10 5V4.375C10 2.99429 8.88071 1.875 7.5 1.875V1.875C6.11929 1.875 5 2.99429 5 4.375V5" stroke="#D9D9D9" stroke-linecap="round"/>
<circle cx="7.5" cy="9.375" r="1.25" fill="#D9D9D9"/>
</svg>
