<svg width="16" height="15" viewBox="0 0 16 15" fill="none" xmlns="http://www.w3.org/2000/svg">
<path d="M11.7557 3.62006L8.32468 2.19704C7.95677 2.04445 7.54327 2.04445 7.17536 2.19704L3.74429 3.62006C3.11867 3.87954 2.74455 4.52606 2.83131 5.19777L3.0705 7.04962C3.28508 8.71086 4.13269 10.2251 5.43656 11.2766L6.80839 12.383C7.35793 12.8261 8.14211 12.8261 8.69165 12.383L10.0635 11.2766C11.3674 10.2251 12.215 8.71086 12.4295 7.04962L12.6687 5.19778C12.7555 4.52606 12.3814 3.87954 11.7557 3.62006Z" stroke="#D7D7D7" stroke-opacity="0.866667" stroke-linecap="round"/>
<path d="M5.81248 7.5L7.32557 8.96428C7.54769 9.17923 7.90968 9.14318 8.08503 8.88863L10.3333 5.625" stroke="#D7D7D7" stroke-opacity="0.866667" stroke-linecap="round"/>
</svg>
